<svg width="322" height="100" viewBox="0 0 322 100" fill="none" xmlns="http://www.w3.org/2000/svg">
<path d="M6.37895 49.9487L32.1997 49.9486L69.7571 10.0439L29.8523 89.8534L6.37895 49.9487Z" fill="url(#paint0_linear_2_2)"/>
<path d="M156.609 49.9487L130.788 49.9487L93.2305 89.8534L130.788 10.0439L156.609 49.9487Z" fill="url(#paint1_linear_2_2)"/>
<path d="M95.5778 52.296L69.7571 10.0439L29.8523 89.8535L67.4097 52.296L93.2305 89.8534L130.788 10.0439L95.5778 52.296Z" fill="url(#paint2_linear_2_2)"/>
<path d="M172.612 37.652L170.956 33.908L170.2 37.652L167.752 50H163.756L169.228 23.54H169.66L176.932 37.832L179.092 42.62L181.252 37.832L188.38 23.54H188.776L194.464 50H190.504L187.84 37.652L187.048 33.908L185.608 37.652L179.2 50H178.984L172.612 37.652ZM205.463 50.36C203.759 50.36 202.247 49.976 200.927 49.208C199.607 48.44 198.587 47.396 197.867 46.076C197.147 44.756 196.787 43.292 196.787 41.684C196.787 40.1 197.135 38.648 197.831 37.328C198.551 36.008 199.571 34.964 200.891 34.196C202.211 33.428 203.735 33.044 205.463 33.044C207.191 33.044 208.703 33.428 209.999 34.196C211.319 34.964 212.327 36.008 213.023 37.328C213.743 38.648 214.103 40.1 214.103 41.684C214.103 43.292 213.743 44.756 213.023 46.076C212.303 47.396 211.283 48.44 209.963 49.208C208.667 49.976 207.167 50.36 205.463 50.36ZM205.571 47.192C206.963 47.192 208.055 46.676 208.847 45.644C209.663 44.612 210.071 43.316 210.071 41.756C210.071 40.196 209.639 38.888 208.775 37.832C207.911 36.752 206.771 36.212 205.355 36.212C203.987 36.212 202.883 36.74 202.043 37.796C201.227 38.852 200.819 40.172 200.819 41.756C200.819 43.292 201.263 44.588 202.151 45.644C203.039 46.676 204.179 47.192 205.571 47.192ZM223.979 50.36C221.699 50.36 220.127 49.688 219.263 48.344C218.423 47 218.003 45.128 218.003 42.728V33.476H221.891V41.756C221.891 43.124 221.963 44.192 222.107 44.96C222.275 45.704 222.587 46.256 223.043 46.616C223.523 46.976 224.231 47.156 225.167 47.156C225.839 47.156 226.487 46.964 227.111 46.58C227.735 46.196 228.239 45.68 228.623 45.032C229.031 44.36 229.235 43.628 229.235 42.836V33.476H233.087V50H229.919L229.487 47.588C228.887 48.524 228.131 49.22 227.219 49.676C226.331 50.132 225.251 50.36 223.979 50.36ZM238.259 33.476H242.075L242.111 36.5C242.567 35.492 243.287 34.664 244.271 34.016C245.255 33.368 246.407 33.044 247.727 33.044C249.431 33.044 250.739 33.404 251.651 34.124C252.563 34.82 253.175 35.804 253.487 37.076C253.799 38.348 253.955 40.004 253.955 42.044V50H250.067V42.152C250.067 40.064 249.863 38.564 249.455 37.652C249.047 36.716 248.207 36.248 246.935 36.248C246.215 36.248 245.483 36.476 244.739 36.932C243.995 37.364 243.371 38 242.867 38.84C242.387 39.68 242.147 40.664 242.147 41.792V50H238.259V33.476ZM260.406 36.644H257.49V33.476H260.406V26.744L264.33 25.88V33.476H268.146V36.644H264.33V50H260.406V36.644ZM278.614 50.36C277.126 50.36 275.746 50.012 274.474 49.316C273.226 48.596 272.218 47.588 271.45 46.292C270.706 44.972 270.334 43.436 270.334 41.684C270.334 39.956 270.658 38.444 271.306 37.148C271.978 35.852 272.926 34.844 274.15 34.124C275.374 33.404 276.814 33.044 278.47 33.044C279.43 33.044 280.33 33.212 281.17 33.548C282.01 33.884 282.718 34.304 283.294 34.808C283.87 35.288 284.254 35.768 284.446 36.248L284.518 33.476H288.226V50H284.554L284.482 47.084C284.074 47.948 283.33 48.716 282.25 49.388C281.17 50.036 279.958 50.36 278.614 50.36ZM279.262 47.12C280.63 47.12 281.782 46.652 282.718 45.716C283.654 44.756 284.122 43.508 284.122 41.972V41.72C284.122 40.688 283.906 39.764 283.474 38.948C283.042 38.132 282.454 37.496 281.71 37.04C280.966 36.584 280.15 36.356 279.262 36.356C277.726 36.356 276.538 36.86 275.698 37.868C274.858 38.852 274.438 40.136 274.438 41.72C274.438 43.328 274.846 44.636 275.662 45.644C276.502 46.628 277.702 47.12 279.262 47.12ZM293.742 33.476H297.774V50H293.742V33.476ZM295.722 30.38C294.978 30.38 294.354 30.128 293.85 29.624C293.346 29.12 293.094 28.496 293.094 27.752C293.094 27.08 293.346 26.504 293.85 26.024C294.354 25.544 294.978 25.304 295.722 25.304C296.442 25.304 297.054 25.544 297.558 26.024C298.062 26.504 298.314 27.08 298.314 27.752C298.314 28.496 298.062 29.12 297.558 29.624C297.078 30.128 296.466 30.38 295.722 30.38ZM303.158 33.476H306.974L307.01 36.5C307.466 35.492 308.186 34.664 309.17 34.016C310.154 33.368 311.306 33.044 312.626 33.044C314.33 33.044 315.638 33.404 316.55 34.124C317.462 34.82 318.074 35.804 318.386 37.076C318.698 38.348 318.854 40.004 318.854 42.044V50H314.966V42.152C314.966 40.064 314.762 38.564 314.354 37.652C313.946 36.716 313.106 36.248 311.834 36.248C311.114 36.248 310.382 36.476 309.638 36.932C308.894 37.364 308.27 38 307.766 38.84C307.286 39.68 307.046 40.664 307.046 41.792V50H303.158V33.476Z" fill="black"/>
<path d="M282.01 67.2012C282.01 68.0475 281.798 68.7702 281.375 69.3691C280.958 69.9616 280.372 70.4141 279.617 70.7266C278.862 71.0391 277.973 71.1953 276.951 71.1953C276.411 71.1953 275.9 71.1693 275.418 71.1172C274.936 71.0651 274.493 70.9902 274.09 70.8926C273.686 70.7949 273.331 70.6745 273.025 70.5312V68.9395C273.514 69.1413 274.109 69.3301 274.812 69.5059C275.516 69.6751 276.251 69.7598 277.02 69.7598C277.736 69.7598 278.341 69.6654 278.836 69.4766C279.331 69.2812 279.705 69.0046 279.959 68.6465C280.219 68.2819 280.35 67.8457 280.35 67.3379C280.35 66.8496 280.242 66.4427 280.027 66.1172C279.812 65.7852 279.454 65.4857 278.953 65.2188C278.458 64.9453 277.781 64.6556 276.922 64.3496C276.316 64.1348 275.783 63.9004 275.32 63.6465C274.858 63.3861 274.471 63.0931 274.158 62.7676C273.846 62.4421 273.608 62.0645 273.445 61.6348C273.289 61.2051 273.211 60.7135 273.211 60.1602C273.211 59.3984 273.403 58.7474 273.787 58.207C274.178 57.6602 274.715 57.2435 275.398 56.957C276.089 56.6641 276.88 56.5176 277.771 56.5176C278.533 56.5176 279.236 56.5892 279.881 56.7324C280.532 56.8757 281.128 57.0677 281.668 57.3086L281.15 58.7344C280.636 58.5195 280.089 58.3405 279.51 58.1973C278.937 58.054 278.344 57.9824 277.732 57.9824C277.12 57.9824 276.603 58.0736 276.18 58.2559C275.763 58.4316 275.444 58.6823 275.223 59.0078C275.001 59.3333 274.891 59.7207 274.891 60.1699C274.891 60.6712 274.995 61.0879 275.203 61.4199C275.418 61.752 275.757 62.0482 276.219 62.3086C276.688 62.5625 277.306 62.8294 278.074 63.1094C278.914 63.4154 279.627 63.7409 280.213 64.0859C280.799 64.4245 281.245 64.8411 281.551 65.3359C281.857 65.8242 282.01 66.446 282.01 67.2012ZM288.143 69.8672C288.41 69.8672 288.683 69.8444 288.963 69.7988C289.243 69.7533 289.471 69.6979 289.646 69.6328V70.8926C289.458 70.9772 289.194 71.0488 288.855 71.1074C288.523 71.166 288.198 71.1953 287.879 71.1953C287.312 71.1953 286.798 71.0977 286.336 70.9023C285.874 70.7005 285.503 70.362 285.223 69.8867C284.949 69.4115 284.812 68.7539 284.812 67.9141V61.5664H283.289V60.7754L284.822 60.1406L285.467 57.8164H286.443V60.2969H289.578V61.5664H286.443V67.8652C286.443 68.5358 286.596 69.0371 286.902 69.3691C287.215 69.7012 287.628 69.8672 288.143 69.8672ZM301.043 65.6289C301.043 66.5078 300.929 67.2923 300.701 67.9824C300.473 68.6725 300.145 69.2552 299.715 69.7305C299.285 70.2057 298.764 70.5703 298.152 70.8242C297.547 71.0716 296.86 71.1953 296.092 71.1953C295.376 71.1953 294.718 71.0716 294.119 70.8242C293.527 70.5703 293.012 70.2057 292.576 69.7305C292.146 69.2552 291.811 68.6725 291.57 67.9824C291.336 67.2923 291.219 66.5078 291.219 65.6289C291.219 64.457 291.417 63.4609 291.814 62.6406C292.212 61.8138 292.778 61.1855 293.514 60.7559C294.256 60.3197 295.138 60.1016 296.16 60.1016C297.137 60.1016 297.99 60.3197 298.719 60.7559C299.454 61.1921 300.024 61.8236 300.428 62.6504C300.838 63.4707 301.043 64.4635 301.043 65.6289ZM292.898 65.6289C292.898 66.4883 293.012 67.2337 293.24 67.8652C293.468 68.4967 293.82 68.985 294.295 69.3301C294.77 69.6751 295.382 69.8477 296.131 69.8477C296.873 69.8477 297.482 69.6751 297.957 69.3301C298.439 68.985 298.794 68.4967 299.021 67.8652C299.249 67.2337 299.363 66.4883 299.363 65.6289C299.363 64.776 299.249 64.0404 299.021 63.4219C298.794 62.7969 298.442 62.3151 297.967 61.9766C297.492 61.638 296.876 61.4688 296.121 61.4688C295.008 61.4688 294.191 61.8366 293.67 62.5723C293.156 63.3079 292.898 64.3268 292.898 65.6289ZM308.709 60.1016C308.924 60.1016 309.148 60.1146 309.383 60.1406C309.617 60.1602 309.826 60.1895 310.008 60.2285L309.803 61.7324C309.627 61.6868 309.432 61.651 309.217 61.625C309.002 61.599 308.8 61.5859 308.611 61.5859C308.182 61.5859 307.775 61.6738 307.391 61.8496C307.013 62.0189 306.681 62.2663 306.395 62.5918C306.108 62.9108 305.883 63.2982 305.721 63.7539C305.558 64.2031 305.477 64.7044 305.477 65.2578V71H303.846V60.2969H305.193L305.369 62.2695H305.438C305.659 61.8724 305.926 61.5111 306.238 61.1855C306.551 60.8535 306.912 60.5898 307.322 60.3945C307.739 60.1992 308.201 60.1016 308.709 60.1016ZM316.15 60.1016C317.062 60.1016 317.843 60.3034 318.494 60.707C319.145 61.1107 319.643 61.6771 319.988 62.4062C320.333 63.1289 320.506 63.9753 320.506 64.9453V65.9512H313.113C313.133 67.2077 313.445 68.1647 314.051 68.8223C314.656 69.4798 315.509 69.8086 316.609 69.8086C317.286 69.8086 317.885 69.7467 318.406 69.623C318.927 69.4993 319.467 69.3171 320.027 69.0762V70.502C319.487 70.7428 318.95 70.9186 318.416 71.0293C317.889 71.14 317.264 71.1953 316.541 71.1953C315.512 71.1953 314.614 70.987 313.846 70.5703C313.084 70.1471 312.492 69.5286 312.068 68.7148C311.645 67.901 311.434 66.9049 311.434 65.7266C311.434 64.5742 311.626 63.5781 312.01 62.7383C312.4 61.8919 312.947 61.2409 313.65 60.7852C314.36 60.3294 315.193 60.1016 316.15 60.1016ZM316.131 61.4297C315.265 61.4297 314.575 61.7129 314.061 62.2793C313.546 62.8457 313.24 63.6367 313.143 64.6523H318.807C318.8 64.0143 318.699 63.4544 318.504 62.9727C318.315 62.4844 318.025 62.1068 317.635 61.8398C317.244 61.5664 316.743 61.4297 316.131 61.4297Z" fill="black"/>
<defs>
<linearGradient id="paint0_linear_2_2" x1="79.1465" y1="10.0439" x2="4.0316" y2="60.5117" gradientUnits="userSpaceOnUse">
<stop stop-color="#E80A89"/>
<stop offset="0.0001" stop-color="#CF251E"/>
<stop offset="1" stop-color="#FB904D"/>
</linearGradient>
<linearGradient id="paint1_linear_2_2" x1="88.5358" y1="89.8534" x2="154.261" y2="21.7806" gradientUnits="userSpaceOnUse">
<stop stop-color="#FB904D"/>
<stop offset="1" stop-color="#CF251E"/>
</linearGradient>
<linearGradient id="paint2_linear_2_2" x1="131.962" y1="7.69655" x2="28.6786" y2="91.0271" gradientUnits="userSpaceOnUse">
<stop stop-color="#FB904D"/>
<stop offset="1" stop-color="#CF251E"/>
</linearGradient>
</defs>
</svg>
